<svg width="22" height="24" viewBox="0 0 22 24" fill="none" xmlns="http://www.w3.org/2000/svg">
<path d="M15.5215 10.3125C15.5215 9.79472 15.1018 9.375 14.584 9.375H4.92774C4.40995 9.375 3.99023 9.79472 3.99023 10.3125C3.99023 10.8303 4.40995 11.25 4.92774 11.25H14.584C15.1018 11.25 15.5215 10.8303 15.5215 10.3125Z" fill="#6E798C"/>
<path d="M4.92773 13.125C4.40995 13.125 3.99023 13.5447 3.99023 14.0625C3.99023 14.5803 4.40995 15 4.92773 15H10.7923C11.3101 15 11.7298 14.5803 11.7298 14.0625C11.7298 13.5447 11.3101 13.125 10.7923 13.125H4.92773Z" fill="#6E798C"/>
<path d="M7.13103 22.125H3.99561C2.96173 22.125 2.12061 21.2839 2.12061 20.25V3.75C2.12061 2.71613 2.96173 1.875 3.99561 1.875H15.5217C16.5555 1.875 17.3967 2.71613 17.3967 3.75V9.51562C17.3967 10.0334 17.8164 10.4531 18.3342 10.4531C18.8519 10.4531 19.2717 10.0334 19.2717 9.51562V3.75C19.2717 1.68225 17.5894 0 15.5217 0H3.99561C1.92786 0 0.245605 1.68225 0.245605 3.75V20.25C0.245605 22.3177 1.92786 24 3.99561 24H7.13103C7.64881 24 8.06853 23.5803 8.06853 23.0625C8.06853 22.5447 7.64881 22.125 7.13103 22.125Z" fill="#6E798C"/>
<path d="M20.9321 13.5737C19.8355 12.4771 18.0513 12.4771 16.9554 13.573L11.8084 18.7086C11.6991 18.8177 11.6184 18.952 11.5735 19.0998L10.4526 22.79C10.3532 23.1172 10.4398 23.4724 10.6786 23.7172C10.8575 23.9005 11.1005 24 11.3497 24C11.4331 24 11.5173 23.9889 11.5999 23.9659L15.3839 22.9178C15.5396 22.8746 15.6816 22.792 15.7959 22.6778L20.9322 17.5512C22.0288 16.4546 22.0288 14.6704 20.9321 13.5737ZM14.6458 21.1766L12.7421 21.704L13.2992 19.8698L16.7722 16.4046L18.0982 17.7307L14.6458 21.1766ZM19.607 16.2249L19.4254 16.4061L18.0995 15.0803L18.2805 14.8996C18.6461 14.5341 19.2408 14.5341 19.6064 14.8996C19.9719 15.2652 19.9719 15.8599 19.607 16.2249Z" fill="#6E798C"/>
<path d="M14.584 5.625H4.92774C4.40995 5.625 3.99023 6.04472 3.99023 6.5625C3.99023 7.08028 4.40995 7.5 4.92774 7.5H14.584C15.1018 7.5 15.5215 7.08028 15.5215 6.5625C15.5215 6.04472 15.1018 5.625 14.584 5.625Z" fill="#6E798C"/>
</svg>
